HIERARCHY
ROOT Hips
{
	OFFSET -0.001795 -0.223333 0.028219
	CHANNELS 6 Xposition Yposition Zposition Zrotation Yrotation Xrotation 
	JOINT LeftUpLeg
	{
		OFFSET 0.069520 -0.091406 -0.006815
		CHANNELS 3 Zrotation Yrotation Xrotation
		JOINT LeftLeg
		{
			OFFSET 0.034277 -0.375199 -0.004496
			CHANNELS 3 Zrotation Yrotation Xrotation
			JOINT LeftFoot
			{
				OFFSET -0.013596 -0.397961 -0.043693
				CHANNELS 3 Zrotation Yrotation Xrotation
				JOINT LeftToe
				{
					OFFSET 0.026358 -0.055791 0.119288
					CHANNELS 3 Zrotation Yrotation Xrotation
					End Site
					{
						OFFSET 0.000000 0.000000 0.000000
					}
				}
			}
		}
	}
	JOINT RightUpLeg
	{
		OFFSET -0.067670 -0.090522 -0.004320
		CHANNELS 3 Zrotation Yrotation Xrotation
		JOINT RightLeg
		{
			OFFSET -0.038290 -0.382569 -0.008850
			CHANNELS 3 Zrotation Yrotation Xrotation
			JOINT RightFoot
			{
				OFFSET 0.015774 -0.398415 -0.042312
				CHANNELS 3 Zrotation Yrotation Xrotation
				JOINT RightToe
				{
					OFFSET -0.025372 -0.048144 0.123348
					CHANNELS 3 Zrotation Yrotation Xrotation
					End Site
					{
						OFFSET 0.000000 0.000000 0.000000
					}
				}
			}
		}
	}
	JOINT Spine
	{
		OFFSET -0.002533 0.108963 -0.026696
		CHANNELS 3 Zrotation Yrotation Xrotation
		JOINT Spine1
		{
			OFFSET 0.005487 0.135180 0.001092
			CHANNELS 3 Zrotation Yrotation Xrotation
			JOINT Spine2
			{
				OFFSET 0.001457 0.052922 0.025425
				CHANNELS 3 Zrotation Yrotation Xrotation
				JOINT Neck
				{
					OFFSET -0.002778 0.213870 -0.042857
					CHANNELS 3 Zrotation Yrotation Xrotation
					JOINT Head
					{
						OFFSET 0.005152 0.064970 0.051349
						CHANNELS 3 Zrotation Yrotation Xrotation
						End Site
						{
							OFFSET 0.000000 0.000000 0.000000
						}
					}
				}
				JOINT LeftShoulder
				{
					OFFSET 0.078845 0.121749 -0.034090
					CHANNELS 3 Zrotation Yrotation Xrotation
					JOINT LeftArm
					{
						OFFSET 0.090977 0.030469 -0.008868
						CHANNELS 3 Zrotation Yrotation Xrotation
						JOINT LeftForeArm
						{
							OFFSET 0.259612 -0.012772 -0.027456
							CHANNELS 3 Zrotation Yrotation Xrotation
							JOINT LeftHand
							{
								OFFSET 0.249234 0.008986 -0.001171
								CHANNELS 3 Zrotation Yrotation Xrotation
								End Site
								{
									OFFSET 0.000000 0.000000 0.000000
								}
							}
						}
					}
				}
				JOINT RightShoulder
				{
					OFFSET -0.081759 0.118833 -0.038615
					CHANNELS 3 Zrotation Yrotation Xrotation
					JOINT RightArm
					{
						OFFSET -0.096012 0.032551 -0.009143
						CHANNELS 3 Zrotation Yrotation Xrotation
						JOINT RightForeArm
						{
							OFFSET -0.253742 -0.013329 -0.021401
							CHANNELS 3 Zrotation Yrotation Xrotation
							JOINT RightHand
							{
								OFFSET -0.255298 0.007772 -0.005559
								CHANNELS 3 Zrotation Yrotation Xrotation
								End Site
								{
									OFFSET 0.000000 0.000000 0.000000
								}
							}
						}
					}
				}
			}
		}
	}
}
MOTION
Frames: 7
Frame Time: 0.050000
0.016768 0.950744 -0.016157 -1.916324 -0.135558 15.039629 9.591403 -0.540719 -14.726812 1.330132 0.091548 -5.019278 -0.817789 4.940143 17.831896 0.000000 0.000000 0.000000 -7.899570 0.850406 -11.132967 1.326397 -0.298700 -5.813347 -9.845226 -22.326235 25.311018 0.000000 0.000000 0.000000 -3.540716 0.148617 6.243139 8.880454 -2.874495 -9.704546 2.831809 11.496846 23.446354 7.479668 -0.580487 -27.436911 0.000000 0.000000 0.000000 -19.470161 -4.437774 -2.020868 -31.671644 -15.294501 -0.779533 -97.507043 -39.307336 43.248098 0.000000 0.000000 0.000000 -3.723479 13.673099 4.462459 21.221544 8.671275 -1.820952 14.278790 63.750827 14.010991 0.000000 0.000000 0.000000 
0.017285 0.950336 -0.014874 -2.017967 -0.284294 14.890406 9.686030 -0.523723 -14.016788 1.166324 0.121599 -5.478692 -0.968610 4.495873 17.182159 0.000000 0.000000 0.000000 -7.931517 0.842876 -10.853953 1.335629 -0.302854 -5.961085 -9.542154 -21.912713 25.813653 0.000000 0.000000 0.000000 -3.386164 0.147453 4.919382 8.662151 -2.905978 -8.778468 3.124513 11.718129 23.270673 7.609799 -0.709828 -26.876623 0.000000 0.000000 0.000000 -20.058461 -3.737263 -2.567179 -32.297175 -15.368904 -0.711908 -96.874087 -39.187221 42.655886 0.000000 0.000000 0.000000 -2.582350 13.951736 4.798484 21.285636 9.715020 -1.708026 5.495591 63.254204 8.434963 0.000000 0.000000 0.000000 
0.017811 0.949763 -0.013862 -1.924324 -0.152540 14.830753 9.468708 -0.542655 -13.488177 1.175974 0.158065 -6.289268 -1.103366 4.482197 17.736660 0.000000 0.000000 0.000000 -8.277876 0.812438 -10.353903 1.658165 -0.338170 -6.691154 -9.997379 -22.446942 26.771103 0.000000 0.000000 0.000000 -3.281918 0.148147 4.044852 9.071361 -3.092437 -8.482169 3.253161 12.044502 23.284390 7.429170 -0.545600 -26.864489 0.000000 0.000000 0.000000 -20.610037 -3.116250 -3.164592 -32.862459 -16.251784 -0.444827 -96.812939 -40.835394 44.418597 0.000000 0.000000 0.000000 -1.986915 13.752367 4.858449 21.936472 10.917176 -1.587074 -3.442873 64.991263 3.396058 0.000000 0.000000 0.000000 
0.018403 0.949405 -0.013315 -1.809713 -0.104408 14.464265 9.310876 -0.544907 -12.851573 0.986753 0.197437 -6.982433 -1.042340 4.657060 17.975969 0.000000 0.000000 0.000000 -8.561323 0.786596 -10.050849 1.705369 -0.344938 -6.859788 -9.865106 -22.256084 26.798712 0.000000 0.000000 0.000000 -3.146079 0.141570 3.372501 9.211041 -3.190831 -8.134911 3.389478 12.358495 23.687564 7.603886 -0.638193 -26.549957 0.000000 0.000000 0.000000 -21.180347 -3.265770 -3.301561 -33.557390 -17.019513 -0.235734 -96.710826 -43.009476 46.818954 0.000000 0.000000 0.000000 -1.620244 14.028778 5.027522 22.214417 11.057080 -1.591303 -11.955135 67.539405 -1.810547 0.000000 0.000000 0.000000 
0.019076 0.948860 -0.013226 -1.637453 0.101446 14.418560 9.070147 -0.565837 -12.687940 1.004241 0.213702 -7.375085 -1.149301 4.589951 18.159495 0.000000 0.000000 0.000000 -8.894626 0.767699 -9.928446 1.769950 -0.353423 -7.034791 -10.055809 -22.462232 26.978992 0.000000 0.000000 0.000000 -3.003019 0.127802 3.365498 9.063229 -3.140806 -8.098730 3.603389 12.216897 23.848063 7.259561 -0.423205 -26.764195 0.000000 0.000000 0.000000 -21.244913 -3.189778 -3.341787 -34.703824 -18.376733 0.095695 -96.724673 -46.119501 50.531214 0.000000 0.000000 0.000000 -1.849385 13.609444 4.817462 22.758364 10.853538 -1.630430 -20.218753 70.999646 -7.483059 0.000000 0.000000 0.000000 
0.019847 0.948688 -0.013282 -1.479863 0.476822 14.517730 9.094181 -0.579048 -12.923972 0.618715 0.227175 -7.351376 -0.815505 5.302681 18.710563 0.000000 0.000000 0.000000 -9.322559 0.753580 -10.378326 1.767439 -0.347070 -6.698240 -9.952323 -22.280624 26.804038 0.000000 0.000000 0.000000 -2.955973 0.125740 3.211709 9.182747 -3.108240 -8.741758 3.714616 12.123506 24.459037 7.087926 -0.357455 -26.438899 0.000000 0.000000 0.000000 -21.364258 -3.164815 -3.407270 -35.472728 -19.572296 0.379450 -96.689960 -48.834008 53.657873 0.000000 0.000000 0.000000 -1.456908 12.538541 4.507761 21.729776 10.500203 -1.710464 -30.482029 74.772717 -15.673494 0.000000 0.000000 0.000000 
0.020528 0.948402 -0.013409 -1.380954 0.850566 14.435241 9.056516 -0.592680 -13.040062 0.383967 0.230360 -7.216958 -0.702016 5.568525 18.842775 0.000000 0.000000 0.000000 -9.525900 0.735402 -10.532645 1.575069 -0.337112 -6.564984 -9.711172 -21.896937 27.012427 0.000000 0.000000 0.000000 -2.448182 0.076584 3.311430 8.739227 -2.890970 -9.212218 3.607347 11.921693 24.832393 6.507590 -0.029177 -26.489881 0.000000 0.000000 0.000000 -20.917755 -2.772842 -3.501892 -36.253856 -20.656487 0.622633 -96.702488 -51.452747 56.698110 0.000000 0.000000 0.000000 -1.844135 11.650124 4.093502 20.800615 9.490468 -1.815734 -42.091103 77.327870 -25.731101 0.000000 0.000000 0.000000 
